<svg aria-hidden="true" style="position: absolute; width: 0; height: 0; overflow: hidden;" version="1.1" xmlns="http://www.w3.org/2000/svg" xmlns:xlink="http://www.w3.org/1999/xlink">
  <defs>
    <symbol id="icon-fallback" viewBox="0 0 20 20">
      <title>fallback-icon</title>
      <path d="M0 10c0-5.523 4.477-10 10-10s10 4.477 10 10v0c0 5.523-4.477 10-10 10s-10-4.477-10-10v0zM16.32 5.1l-11.23 11.21c1.34 1.049 3.050 1.683 4.908 1.683 4.418 0 8-3.582 8-8 0-1.855-0.632-3.563-1.692-4.92l0.013 0.018zM14.91 3.68c-1.344-1.059-3.061-1.698-4.928-1.698-4.418 0-8 3.582-8 8 0 1.867 0.639 3.584 1.711 4.945l-0.013-0.017 11.23-11.23 Z" />
    </symbol>

    <symbol id="icon-check-arrow" viewBox="0 0 26 19">
      <title>check-arrow</title>
      <path transform="translate(-7 -11)" d="M16.1885651,24.8816079 L29.5187707,11.5514022 C30.2963228,10.7738502 31.5619478,10.7788144 32.3391099,11.5559765 L32.4420225,11.658889 C33.2221007,12.4389673 33.2188838,13.7069411 32.4465967,14.4792282 L17.6954061,29.2304188 C17.0264182,29.8994066 15.9961351,29.989138 15.2265053,29.5061847 C14.9565837,29.4087988 14.7028843,29.251579 14.4857185,29.0344131 L7.56450562,22.1132002 C6.78075644,21.3294511 6.78069682,20.0588022 7.55785889,19.2816401 L7.66077143,19.1787276 C8.44084972,18.3986493 9.70605121,18.399094 10.4923315,19.1853743 L16.1885651,24.8816079 Z" />
    </symbol>
    <symbol id="icon-check-arrow-down" viewBox="0 0 40 40">
      <title>check-arrow-down</title>
      <path transform="rotate(90 20 20)" d="M23.7121709,20.693072 L17.6776986,26.7126627 C17.2938333,27.0957791 16.6714615,27.0957791 16.2877825,26.7126627 C15.9040725,26.3298871 15.9040725,25.7090619 16.2877825,25.3263173 L21.6273588,19.9998993 L16.2879378,14.6736672 C15.9042278,14.2907367 15.9042278,13.6699735 16.2879378,13.2871979 C16.6716478,12.9042674 17.2939886,12.9042674 17.6778539,13.2871979 L23.7123262,19.3068815 C23.9041812,19.4983623 24,19.7490533 24,19.9998683 C24,20.2508072 23.9039948,20.5016842 23.7121709,20.693072 Z" />
    </symbol>
    <symbol id="icon-check-arrow-up" viewBox="0 0 40 40">
      <title>check-arrow-up</title>
      <path transform="rotate(270 20 20)" d="M23.7121709,20.693072 L17.6776986,26.7126627 C17.2938333,27.0957791 16.6714615,27.0957791 16.2877825,26.7126627 C15.9040725,26.3298871 15.9040725,25.7090619 16.2877825,25.3263173 L21.6273588,19.9998993 L16.2879378,14.6736672 C15.9042278,14.2907367 15.9042278,13.6699735 16.2879378,13.2871979 C16.6716478,12.9042674 17.2939886,12.9042674 17.6778539,13.2871979 L23.7123262,19.3068815 C23.9041812,19.4983623 24,19.7490533 24,19.9998683 C24,20.2508072 23.9039948,20.5016842 23.7121709,20.693072 Z" />
    </symbol>  

    <symbol id="icon-error" viewBox="0 0 40 40">
      <title>error</title>
      <path d="M39.115007,29.3743988 C40.2949977,31.2623024 40.2949977,33.622148 39.115007,35.5100517 C38.1709874,37.3978196 36.2830838,38.5778103 33.9232382,38.5778103 L6.07676177,38.5778103 C3.95275155,38.5778103 1.82887695,37.3979553 0.884992956,35.5100517 C-0.294997652,33.622148 -0.294997652,31.2623024 0.884992956,29.3743988 L14.8082312,5.0677586 C15.9882218,3.17999061 17.8761254,2 20,2 C22.1240102,2 24.2478848,3.17985499 25.1917688,5.0677586 L39.115007,29.3743988 Z M21.4112372,24.0929267 L21.4112372,15.6340572 C21.4112372,14.8191393 20.7505375,14.1584396 19.9356196,14.1584396 C19.1207017,14.1584396 18.460002,14.8191393 18.460002,15.6340572 L18.460002,24.0929267 C18.460002,24.9078446 19.1207017,25.5685443 19.9356196,25.5685443 C20.7505375,25.5685443 21.4112372,24.9078446 21.4112372,24.0929267 Z M21.4112372,29.842355 L21.4112372,28.9611869 C21.4112372,28.146269 20.7505375,27.4855693 19.9356196,27.4855693 C19.1207017,27.4855693 18.460002,28.146269 18.460002,28.9611869 L18.460002,29.842355 C18.460002,30.6572729 19.1207017,31.3179726 19.9356196,31.3179726 C20.7505375,31.3179726 21.4112372,30.6572729 21.4112372,29.842355 Z" />
    </symbol>  
    <symbol id="icon-error-outline" viewBox="0 0 40 40">
      <title>error</title>
      <path d="M39.115007,29.3743988 L25.1917688,5.0677586 C24.2478848,3.17985499 22.1240102,2 20,2 C17.8761254,2 15.9882218,3.17999061 14.8082312,5.0677586 L0.884992956,29.3743988 C-0.294997652,31.2623024 -0.294997652,33.622148 0.884992956,35.5100517 C1.82887695,37.3979553 3.95275155,38.5778103 6.07676177,38.5778103 L33.9232382,38.5778103 C36.2830838,38.5778103 38.1709874,37.3978196 39.115007,35.5100517 C40.2949977,33.622148 40.2949977,31.2623024 39.115007,29.3743988 Z M37.2271034,34.5661677 C36.7551614,35.7461583 35.5751708,36.4540713 34.1593448,36.4540713 L6.07676177,36.4540713 C4.89677116,36.4540713 3.71691617,35.7461583 3.00900318,34.5661677 C2.30109018,33.386177 2.30109018,31.9703511 3.00900318,30.7903604 L16.9322414,6.48358459 C17.4041834,5.30359398 18.584174,4.59568098 20,4.59568098 C21.4159616,4.59568098 22.5958166,5.30359398 23.3038652,6.48358459 L37.2271034,30.7902248 C37.9351521,31.9702154 37.9351521,33.386177 37.2271034,34.5661677 Z M21.4112372,24.0929267 C21.4112372,24.9078446 20.7505375,25.5685443 19.9356196,25.5685443 C19.1207017,25.5685443 18.460002,24.9078446 18.460002,24.0929267 L18.460002,15.6340572 C18.460002,14.8191393 19.1207017,14.1584396 19.9356196,14.1584396 C20.7505375,14.1584396 21.4112372,14.8191393 21.4112372,15.6340572 L21.4112372,24.0929267 Z M21.4112372,29.842355 C21.4112372,30.6572729 20.7505375,31.3179726 19.9356196,31.3179726 C19.1207017,31.3179726 18.460002,30.6572729 18.460002,29.842355 L18.460002,28.9611869 C18.460002,28.146269 19.1207017,27.4855693 19.9356196,27.4855693 C20.7505375,27.4855693 21.4112372,28.146269 21.4112372,28.9611869 L21.4112372,29.842355 Z" />
    </symbol>  

    
  </defs>
</svg>